<svg xmlns="http://www.w3.org/2000/svg" width="28" height="28" viewBox="0 0 28 28"><path fill="#fff" d="M3.375 18.266l9.422 6.28V18.94l-5.22-3.484zm-.97-2.25L5.423 14l-3.016-2.016v4.03zm12.798 8.53l9.422-6.28-4.203-2.812-5.22 3.484v5.61zM14 16.845L18.25 14 14 11.156 9.75 14zm-6.422-4.297l5.22-3.484v-5.61L3.374 9.736zm15 1.453l3.016 2.016v-4.03zm-2.156-1.453l4.203-2.812-9.422-6.28v5.608zM28 9.734v8.53q0 .642-.53 1L14.67 27.797Q14.344 28 14 28t-.672-.204L.53 19.266q-.53-.36-.53-1V9.733q0-.64.53-1L13.33.204Q13.656 0 14 0t.672.203l12.797 8.53q.53.36.53 1z"/></svg>