<svg xmlns="http://www.w3.org/2000/svg" width="24" height="24" viewBox="0 0 24 24"><path fill="#fff" d="M18 9.748v-1.5a.75.75 0 0 0-.75-.75H.75a.75.75 0 0 0-.75.75v10.5c0 .136.046.255.107.365A6 6 0 0 0 6 24h6c1.89 0 3.567-.883 4.666-2.25H18a6 6 0 0 0 0-12.002zm0 9v-6a3 3 0 0 1 0 6zM3.9 6.38c-.113.202-.1.37.113.37.212 0 .502-.168.575-.368.745-1.942-3.167-3.52-.803-5.915.242-.248.34-.463.126-.464s-.656.204-.888.445C.745 2.785 4.96 4.428 3.9 6.38zm2.83.01c-.027.193.092.36.302.36s.413-.167.433-.36C7.63 5 6.52 3.724 7.187 2.52c.01-.217-.245-.433-.577-.463s-.625.134-.637.35c-.08 1.57.952 2.57.757 3.98zm3.32.36c.21 0 .376-.167.416-.353.38-1.797 3.486-2.35 1.144-5.56-.25-.33-.695-.636-.91-.64s-.235.293-.09.62c2.33 2.2.092 3.778-.9 5.58-.032.185.133.353.342.353zm3.022 0c.21 0 .35-.17.412-.366.57-1.907 7.004-3.14 1.594-5.765-.564-.267-1.296-.49-1.456-.482-.163.01.22.288.702.59 4.423 2.9.302 2.024-1.59 5.662-.06.19.13.36.338.36z"/></svg>