<svg xmlns="http://www.w3.org/2000/svg" width="48" height="48" viewBox="0 0 48 48"><path d="M11 1c-.81-.5-1.94-1-3-1-4.42 0-8 3.61-8 8.07C0 14.52 6.87 16.82 11 20v1.5c0 6.05 4.29 11.09 10 12.25V41c0 1.1-.9 2-2 2h-5.5a2.5 2.5 0 0 0 0 5h20a2.5 2.5 0 0 0 0-5H28c-1.1 0-2-.9-2-2v-7.25c5.71-1.16 10-6.2 10-12.25V20c4.13-3.18 11-5.48 11-11.93C47 3.61 43.42 0 39 0c-1.06 0-2.19.5-3 1H11zm9 7v12c0 1.1-.9 2-2 2s-2-.9-2-2V8c0-1.1.9-2 2-2s2 .9 2 2zM5 8.07C5 6.4 6.34 5.04 8 5.04s3 1.36 3 3.03v6.15c-2.88-1.82-6-3.03-6-6.15zm37 0c0 3.12-3.12 4.33-6 6.15V8.07c0-1.67 1.34-3.03 3-3.03s3 1.36 3 3.03z"/></svg>