<svg xmlns="http://www.w3.org/2000/svg" width="36" height="28" viewBox="0 0 36 28"><path d="M22.453 14.266q0 3.25-1.36 5.79t-3.874 3.968-5.767 1.43q-2.328 0-4.453-.906T3.344 22.11.906 18.454 0 14 .906 9.55t2.438-3.656T7 3.454t4.453-.906q4.47 0 7.672 3l-3.11 2.984q-1.827-1.766-4.56-1.766-1.923 0-3.556.97t-2.587 2.632T4.36 14t.953 3.634T7.9 20.267t3.554.97q1.297 0 2.383-.36t1.79-.898 1.226-1.228.766-1.297.335-1.156h-6.5v-3.94h10.813q.187.985.187 1.907zM36 12.36v3.28h-3.266v3.266h-3.28V15.64h-3.267v-3.28h3.266V9.092h3.28v3.266H36z"/></svg>