<svg xmlns="http://www.w3.org/2000/svg" width="26" height="28" viewBox="0 0 26 28"><path d="M22 15.5V23q0 .406-.297.703T21 24h-6v-6h-4v6H5q-.406 0-.703-.297T4 23v-7.5q0-.016.008-.047t.008-.047L13 8l8.984 7.406q.016.03.016.094zm3.484-1.078l-.97 1.156q-.124.14-.327.172h-.047q-.203 0-.328-.11L13 6.626 2.185 15.64q-.187.126-.375.11-.202-.03-.327-.172l-.97-1.156q-.124-.156-.108-.367t.172-.336L11.81 4.36q.5-.406 1.19-.406t1.187.406L18 7.547V4.5q0-.22.14-.36T18.5 4h3q.22 0 .36.14t.14.36v6.375l3.422 2.844q.156.124.172.335t-.11.367z"/></svg>