<svg xmlns="http://www.w3.org/2000/svg" width="48" height="48" viewBox="0 0 48 48"><path fill="#fff" d="M41 15a9 9 0 0 0-9-9H16a3.99 3.99 0 0 1-3.87-3S12 2.67 12 2.5a2.5 2.5 0 1 0-4.94.55A8.993 8.993 0 0 0 16 11h16a4 4 0 0 1 4 4H4a4 4 0 0 0-4 4v25a4 4 0 0 0 4 4h40a4 4 0 0 0 4-4V19a4 4 0 0 0-4-4h-3zm-11.5 5a2.5 2.5 0 0 1 0 5 2.5 2.5 0 0 1 0-5zm0 9a2.5 2.5 0 0 1 0 5 2.5 2.5 0 0 1 0-5zm-11-9a2.5 2.5 0 0 1 0 5 2.5 2.5 0 0 1 0-5zm0 9a2.5 2.5 0 0 1 0 5 2.5 2.5 0 0 1 0-5zm-11-9a2.5 2.5 0 0 1 0 5 2.5 2.5 0 0 1 0-5zm0 9a2.5 2.5 0 0 1 0 5 2.5 2.5 0 0 1 0-5zm0 9a2.5 2.5 0 0 1 0 5 2.5 2.5 0 0 1 0-5zm33-18a2.5 2.5 0 0 1 0 5 2.5 2.5 0 0 1 0-5zm0 9a2.5 2.5 0 0 1 0 5 2.5 2.5 0 0 1 0-5zm0 9a2.5 2.5 0 0 1 0 5 2.5 2.5 0 0 1 0-5zM32 43H16c-1.1 0-2-.9-2-2s.9-2 2-2h16c1.1 0 2 .9 2 2s-.9 2-2 2z"/></svg>