<svg xmlns="http://www.w3.org/2000/svg" width="16" height="28" viewBox="0 0 16 28"><path d="M11.5 9q0 .203-.148.352T11 9.5t-.352-.148T10.5 9q0-.72-.844-1.11T8 7.5q-.203 0-.352-.148T7.5 7t.148-.352T8 6.5q.78 0 1.555.25t1.36.844T11.5 9zM14 9q0-1.125-.54-2.094T12.056 5.32t-1.922-.97T8 4t-2.133.35-1.922.97T2.54 6.906 2 9q0 1.578 1.062 2.812.156.172.477.516t.476.516q2 2.39 2.203 4.656H9.78q.203-2.266 2.203-4.656.156-.172.477-.516t.477-.516Q14 10.578 14 9zm2 0q0 2.422-1.61 4.188-.702.766-1.163 1.36t-.93 1.49-.53 1.68q.733.44.733 1.282 0 .578-.39 1 .39.422.39 1 0 .812-.703 1.266.203.36.203.734 0 .72-.492 1.11t-1.21.39q-.314.688-.94 1.094T8 26t-1.36-.406-.937-1.094q-.72 0-1.21-.39T4 23q0-.375.203-.734Q3.5 21.813 3.5 21q0-.578.39-1-.39-.422-.39-1 0-.844.734-1.28-.063-.782-.53-1.68t-.93-1.493-1.165-1.36Q0 11.423 0 9q0-1.547.695-2.883t1.828-2.22 2.562-1.39T8 2t2.913.507 2.562 1.39 1.828 2.22T15.998 9z"/></svg>