<svg xmlns="http://www.w3.org/2000/svg" width="21" height="24" viewBox="0 0 21 24"><path fill="#fff" d="M4.674 8.37v13.273H.254V8.37h4.42zm.28-4.098q.014.978-.675 1.634t-1.816.656h-.027q-1.098 0-1.768-.656T0 4.272q0-.99.69-1.64t1.8-.65 1.78.65.684 1.64zm15.617 9.764v7.607h-4.405v-7.098q0-1.406-.542-2.203t-1.694-.797q-.845 0-1.414.462t-.85 1.145q-.147.402-.147 1.085v7.406H7.112q.027-5.344.027-8.665t-.013-3.964l-.013-.643h4.406v1.93h-.027q.268-.43.55-.75t.756-.696 1.164-.583 1.533-.207q2.29 0 3.683 1.52t1.393 4.453z"/></svg>