<svg xmlns="http://www.w3.org/2000/svg" width="28" height="28" viewBox="0 0 28 28"><path d="M26 23.5v-12q-.5.562-1.078 1.03-4.188 3.22-6.656 5.282-.797.672-1.297 1.047t-1.353.757-1.602.383h-.03q-.75 0-1.603-.383t-1.352-.758-1.297-1.048q-2.47-2.063-6.656-5.28Q2.5 12.06 2 11.5v12q0 .203.147.352T2.5 24h23q.202 0 .35-.148T26 23.5zm0-16.422v-.383l-.008-.203-.047-.195-.086-.14-.142-.118-.22-.04h-23q-.202 0-.35.148t-.15.352q0 2.625 2.298 4.438 3.016 2.375 6.266 4.953l.547.462q.452.382.718.586t.695.492.79.43.67.14h.032q.313 0 .672-.14t.79-.43.694-.492.72-.586.547-.46q3.25-2.58 6.266-4.954.844-.672 1.57-1.805T26 7.078zm2-.578v17q0 1.03-.734 1.766T25.5 26h-23q-1.03 0-1.766-.734T0 23.5v-17q0-1.03.734-1.766T2.5 4h23q1.03 0 1.766.734T28 6.5z"/></svg>