<svg xmlns="http://www.w3.org/2000/svg" width="32" height="32" viewBox="0 0 32 32"><path fill="#fff" d="M16 0C7.164 0 0 7.164 0 16c0 7.07 4.584 13.066 10.942 15.182.8.146 1.092-.348 1.092-.77 0-.38-.015-1.643-.022-2.98-4.45.968-5.39-1.886-5.39-1.886-.73-1.848-1.776-2.34-1.776-2.34-1.454-.992.11-.973.11-.973 1.606.11 2.452 1.648 2.452 1.648 1.428 2.446 3.746 1.74 4.656 1.33.145-1.032.56-1.74 1.016-2.138-3.552-.404-7.288-1.777-7.288-7.908 0-1.748.624-3.174 1.646-4.294-.163-.406-.714-2.034.158-4.236 0 0 1.342-.43 4.4 1.64A15.255 15.255 0 0 1 16 7.738c1.36.006 2.73.184 4.006.54 3.053-2.072 4.396-1.64 4.396-1.64.875 2.203.324 3.83.16 4.233 1.025 1.12 1.645 2.546 1.645 4.294 0 6.146-3.742 7.5-7.307 7.896.576.496 1.086 1.47 1.086 2.96 0 2.14-.02 3.864-.02 4.392 0 .426.29.924 1.1.768 6.355-2.12 10.935-8.115 10.935-15.182 0-8.836-7.163-16-16-16z"/></svg>