<svg xmlns="http://www.w3.org/2000/svg" width="24" height="24" viewBox="0 0 24 24"><path fill="#fff" d="M12 24c6.627 0 12-5.373 12-12S18.627 0 12 0 0 5.373 0 12s5.373 12 12 12zm0-21.75c5.385 0 9.75 4.365 9.75 9.75s-4.365 9.75-9.75 9.75S2.25 17.385 2.25 12 6.615 2.25 12 2.25zM6 7.5a1.5 1.5 0 1 1 3 0 1.5 1.5 0 0 1-3 0zm9 0a1.5 1.5 0 1 1 3 0 1.5 1.5 0 0 1-3 0zm1.502 7.2l1.93 1.16c-1.312 2.18-3.7 3.64-6.432 3.64s-5.12-1.46-6.432-3.64l1.93-1.16c.918 1.528 2.59 2.55 4.502 2.55s3.584-1.022 4.502-2.55z"/></svg>