<svg xmlns="http://www.w3.org/2000/svg" width="28" height="28" viewBox="0 0 28 28"><path d="M8 19.5v3q0 .625-.438 1.062T6.5 24h-5q-.625 0-1.062-.438T0 22.5v-3q0-.625.438-1.062T1.5 18h5q.625 0 1.062.438T8 19.5zm0-8v3q0 .625-.438 1.062T6.5 16h-5q-.625 0-1.062-.438T0 14.5v-3q0-.625.438-1.062T1.5 10h5q.625 0 1.062.438T8 11.5zm10 8v3q0 .625-.438 1.062T16.5 24h-5q-.625 0-1.062-.438T10 22.5v-3q0-.625.438-1.062T11.5 18h5q.625 0 1.062.438T18 19.5zM8 3.5v3q0 .625-.438 1.062T6.5 8h-5Q.875 8 .438 7.562T0 6.5v-3q0-.625.438-1.062T1.5 2h5q.625 0 1.062.438T8 3.5zm10 8v3q0 .625-.438 1.062T16.5 16h-5q-.625 0-1.062-.438T10 14.5v-3q0-.625.438-1.062T11.5 10h5q.625 0 1.062.438T18 11.5zm10 8v3q0 .625-.438 1.062T26.5 24h-5q-.625 0-1.062-.438T20 22.5v-3q0-.625.438-1.062T21.5 18h5q.625 0 1.062.438T28 19.5zm-10-16v3q0 .625-.438 1.062T16.5 8h-5q-.625 0-1.062-.438T10 6.5v-3q0-.625.438-1.062T11.5 2h5q.625 0 1.062.438T18 3.5zm10 8v3q0 .625-.438 1.062T26.5 16h-5q-.625 0-1.062-.438T20 14.5v-3q0-.625.438-1.062T21.5 10h5q.625 0 1.062.438T28 11.5zm0-8v3q0 .625-.438 1.062T26.5 8h-5q-.625 0-1.062-.438T20 6.5v-3q0-.625.438-1.062T21.5 2h5q.625 0 1.062.438T28 3.5z"/></svg>