<svg xmlns="http://www.w3.org/2000/svg" width="24" height="28" viewBox="0 0 24 28"><path fill="#fff" d="M4 21q0-.406-.297-.703T3 20t-.703.297T2 21t.297.703T3 22t.703-.297T4 21zm18-9q0-.797-.61-1.398T20 10h-5.5q0-.906.75-2.492T16 5q0-1.53-.5-2.266T13.5 2q-.406.406-.594 1.328t-.477 1.96T11.5 7q-.345.36-1.204 1.422-.063.078-.36.47t-.49.64-.54.664-.625.688-.6.555-.626.42-.555.142H6v10h.5q.202 0 .49.047t.517.1.594.173.548.18.555.195.453.164q3.297 1.14 5.344 1.14h1.89q3 0 3-2.608 0-.406-.077-.875.47-.25.742-.82t.273-1.15-.28-1.077q.827-.78.827-1.86 0-.39-.156-.866t-.392-.742q.5-.016.836-.734T22 12.006zm2-.016q0 1.39-.766 2.547.14.517.14 1.08 0 1.202-.593 2.25.048.327.048.67 0 1.58-.938 2.782.016 2.172-1.328 3.43T17.015 26H15q-1.5 0-2.962-.352t-3.383-1.023Q6.842 24 6.5 24H2q-.83 0-1.415-.586T0 22V12q0-.828.585-1.414T2 10h4.28q.562-.375 2.14-2.422.907-1.172 1.673-2 .375-.39.555-1.336t.477-1.977.97-1.687Q12.702 0 13.5 0q1.313 0 2.36.508t1.593 1.586T18 5q0 1.453-.75 3H20q1.625 0 2.812 1.188T24 11.985z"/></svg>