<svg xmlns="http://www.w3.org/2000/svg" width="24" height="24" viewBox="0 0 24 24"><path d="M24 5.306a9.695 9.695 0 0 1-2.827.773 4.955 4.955 0 0 0 2.166-2.724A9.882 9.882 0 0 1 20.21 4.55 4.926 4.926 0 0 0 16.617 3a4.92 4.92 0 0 0-4.795 6.04A13.974 13.974 0 0 1 1.674 3.895a4.923 4.923 0 0 0-.666 2.475c0 1.705.867 3.215 2.19 4.096a4.916 4.916 0 0 1-2.232-.614v.06a4.924 4.924 0 0 0 3.952 4.83 4.947 4.947 0 0 1-2.226.083 4.94 4.94 0 0 0 4.598 3.422 9.875 9.875 0 0 1-7.294 2.04 13.923 13.923 0 0 0 7.552 2.21c9.056 0 14.01-7.504 14.01-14.01 0-.216-.004-.427-.013-.637A9.91 9.91 0 0 0 24 5.305z"/></svg>