<svg xmlns="http://www.w3.org/2000/svg" width="24" height="24" viewBox="0 0 24 24"><path d="M13.45 16.685l1.455 1.455c.48.48 1.255.48 1.735 0s.48-1.255 0-1.735l-1.45-1.455 1.45-1.45s-5.49-2.345-5.714-2.43a1.045 1.045 0 0 0-1.355 1.345C9.657 12.63 12 18.14 12 18.14l1.45-1.455zM0 21.5a2 2 0 0 0 2 2h20a2 2 0 0 0 2-2V3a2 2 0 0 0-2-2H2a2 2 0 0 0-2 2v18.5zM3.6 8h16.8c.61 0 1.1.49 1.1 1.1v10.8c0 .61-.49 1.1-1.1 1.1H3.6c-.61 0-1.1-.49-1.1-1.1V9.1c0-.61.49-1.1 1.1-1.1zM2.5 4.75a1.25 1.25 0 1 1 2.5 0 1.25 1.25 0 0 1-2.5 0zm4.5 0a1.25 1.25 0 1 1 2.5 0 1.25 1.25 0 0 1-2.5 0zm4.5 0a1.25 1.25 0 1 1 2.5 0 1.25 1.25 0 0 1-2.5 0z"/></svg>